<svg width="70" height="70" viewBox="0 0 70 70" fill="none" xmlns="http://www.w3.org/2000/svg">
<path d="M21.875 4.375C19.5544 4.375 17.3288 5.29687 15.6878 6.93782C14.0469 8.57876 13.125 10.8044 13.125 13.125V56.8662C13.125 59.1869 14.0469 61.4125 15.6878 63.0534C17.3288 64.6944 19.5544 65.6162 21.875 65.6162H26.4513L27.545 61.2412H21.875C20.7147 61.2412 19.6019 60.7803 18.7814 59.9598C17.9609 59.1394 17.5 58.0266 17.5 56.8662V13.125C17.5 11.9647 17.9609 10.8519 18.7814 10.0314C19.6019 9.21094 20.7147 8.75 21.875 8.75H35V19.6875C35 21.4265 35.6902 23.0943 36.919 24.3248C38.1478 25.5553 39.8148 26.2477 41.5538 26.25H52.4912V32.55C53.8032 31.648 55.2963 31.0433 56.8662 30.7781V23.6819C56.8647 21.942 56.1723 20.2739 54.9412 19.0444L42.1969 6.29563C40.9666 5.06617 39.2986 4.37537 37.5594 4.375H21.875ZM51.5856 21.875H41.5625C40.9823 21.875 40.4259 21.6445 40.0157 21.2343C39.6055 20.8241 39.375 20.2677 39.375 19.6875V9.65125L51.5856 21.875ZM56.8662 35.2625C55.7719 35.5859 54.7761 36.1786 53.97 36.9863L35.2188 55.7375C33.7013 57.2616 32.6119 59.1583 32.06 61.2369L32.0206 61.3812L30.6994 66.6794C30.5879 67.1258 30.5938 67.5934 30.7163 68.0369C30.8389 68.4804 31.0741 68.8846 31.399 69.2104C31.7239 69.5362 32.1275 69.7725 32.5707 69.8962C33.0138 70.02 33.4814 70.0271 33.9281 69.9169L39.2262 68.5913C41.3602 68.053 43.3098 66.9497 44.87 65.3975L63.63 46.6375C64.7047 45.565 65.3912 44.1647 65.5807 42.6583C65.7702 41.1518 65.452 39.6252 64.6763 38.3199C63.9007 37.0147 62.712 36.0053 61.2982 35.4515C59.8845 34.8978 58.3221 34.8313 56.8662 35.2625Z" fill="#C69F86"/>
</svg>
