<svg width="70" height="70" viewBox="0 0 70 70" fill="none" xmlns="http://www.w3.org/2000/svg">
<path d="M31.7075 5.92344C38.2611 5.92048 44.5481 8.51877 49.188 13.1471V13.1461L67.6284 31.7125L67.6294 31.7135C68.1587 32.2443 68.4553 32.9639 68.4546 33.7135C68.4538 34.463 68.1558 35.1818 67.6255 35.7115L67.6245 35.7125L59.7827 43.5572C59.5201 43.8198 59.2078 44.0284 58.8647 44.1705C58.5217 44.3125 58.154 44.3854 57.7827 44.3854C57.4114 44.3853 57.0437 44.3125 56.7007 44.1705C56.3575 44.0284 56.0453 43.8199 55.7827 43.5572L46.645 34.4186L45.937 33.7115L45.23 34.4186L18.5923 61.0621C18.3297 61.3248 18.0175 61.5332 17.6743 61.6754C17.3312 61.8175 16.9636 61.8912 16.5923 61.8912C16.221 61.8912 15.8533 61.8175 15.5103 61.6754C15.1671 61.5332 14.8549 61.3248 14.5923 61.0621L8.93506 55.4049H8.93408C8.67122 55.1423 8.46312 54.8301 8.3208 54.4869C8.1785 54.1437 8.10501 53.7755 8.10498 53.4039C8.10498 53.0323 8.1785 52.6642 8.3208 52.3209C8.46308 51.9777 8.67125 51.6655 8.93408 51.4029H8.93506L35.5835 24.7701L36.2915 24.0631L35.5845 23.3551L21.6704 9.44102L21.021 9.775C18.8536 10.889 16.8735 12.3345 15.1519 14.0592L15.146 14.0641L15.1411 14.0699L11.3979 17.9332L11.397 17.9342C11.2787 18.0563 11.1168 18.1267 10.9468 18.1295C10.7766 18.1323 10.6121 18.0672 10.4897 17.9488C10.3676 17.8306 10.2973 17.6686 10.2944 17.4986C10.2916 17.3285 10.3558 17.1629 10.4741 17.0406L14.2329 13.1617L14.2339 13.1627C18.8695 8.53023 25.154 5.92641 31.7075 5.92344ZM28.8237 33.3248L9.84229 52.3092C9.69849 52.4528 9.58418 52.6234 9.50635 52.8111C9.44799 52.9519 9.41093 53.1005 9.396 53.2516L9.38916 53.4039L9.396 53.5553C9.41088 53.7064 9.44802 53.8549 9.50635 53.9957C9.56475 54.1366 9.64426 54.2679 9.74072 54.3854L9.84229 54.4977L15.4995 60.1549C15.6431 60.2986 15.8138 60.413 16.0015 60.4908C16.1891 60.5685 16.3902 60.608 16.5933 60.608C16.7965 60.608 16.9982 60.5687 17.186 60.4908C17.3269 60.4324 17.4583 60.3538 17.5757 60.2574L17.688 60.1549L36.6665 41.1754L37.3735 40.4693L36.6675 39.7623L30.2388 33.3258L29.5317 32.6178L28.8237 33.3248ZM61.6499 28.942L53.02 37.5738L52.314 38.2809L53.02 38.9879L56.687 42.6598C56.8306 42.8035 57.0012 42.9179 57.189 42.9957C57.3767 43.0735 57.5784 43.1139 57.7817 43.1139C57.9849 43.1138 58.1859 43.0735 58.3735 42.9957C58.5611 42.9179 58.7309 42.8034 58.8745 42.6598L58.8755 42.6607L66.7202 34.8131L67.0132 34.5201V34.3893C67.1148 34.1803 67.1714 33.9501 67.1714 33.7135C67.1714 33.3067 67.0108 32.916 66.7251 32.6266L66.7231 32.6246L63.0669 28.9439L62.3599 28.232L61.6499 28.942ZM37.1724 7.83848C32.965 6.83025 28.5604 7.00585 24.4468 8.34629L22.8979 8.85117L24.0493 10.0035L37.6392 23.607L37.6401 23.608C37.6997 23.6675 37.7466 23.7383 37.7788 23.816C37.811 23.8938 37.8276 23.977 37.8276 24.0611C37.8276 24.1453 37.811 24.2285 37.7788 24.3063C37.7466 24.384 37.6997 24.4548 37.6401 24.5143V24.5152L31.1431 31.0113L30.4351 31.7193L31.1431 32.4264L37.5747 38.8492L38.2817 39.5553L38.9888 38.8492L45.4849 32.3521C45.6048 32.2324 45.7675 32.1648 45.937 32.1646C46.0644 32.1646 46.188 32.2034 46.2925 32.273L46.3901 32.3521L50.6987 36.6617L51.4058 37.3678L52.1128 36.6617L60.7583 28.0328L61.4644 27.3277L60.7622 26.6197L48.2876 14.0611L48.2856 14.0582L47.7026 13.4957C44.7439 10.7346 41.1168 8.78371 37.1724 7.83848Z" fill="#C69F86" stroke="#C69F86" stroke-width="2"/>
</svg>
