<svg width="70" height="70" viewBox="0 0 70 70" fill="none" xmlns="http://www.w3.org/2000/svg">
<g clip-path="url(#clip0_57_160)">
<path d="M56.875 13.125C54.4914 15.405 51.6569 17.1606 48.5538 18.2787C45.2813 18.8562 36.225 14.6562 31.7625 18.9437C31.0188 19.6875 30.1 20.4313 29.1375 21.175C27.0375 20.2563 23.8 18.8562 21.4375 17.5C19.075 16.1437 13.125 13.125 13.125 13.125L0 28.4375C0 28.4375 3.2375 32.8125 5.25 35.7C6.5625 37.625 8.18125 40.5563 9.23125 42.525L7.74375 44.275C7.39007 44.9832 7.26331 45.7833 7.38075 46.5662C7.49818 47.349 7.85409 48.0767 8.4 48.65C9.03185 49.1264 9.80203 49.3833 10.5933 49.3818C11.3847 49.3802 12.1538 49.1202 12.7838 48.6413C12.5498 48.9151 12.3728 49.2328 12.263 49.5758C12.1532 49.9188 12.1128 50.2803 12.1441 50.6391C12.1755 50.9978 12.278 51.3468 12.4457 51.6656C12.6133 51.9843 12.8428 52.2665 13.1206 52.4956C13.7896 52.8832 14.5493 53.0865 15.3224 53.085C16.0956 53.0835 16.8545 52.8771 17.5219 52.4869C17.022 53.1099 16.7485 53.8842 16.7461 54.683C16.7437 55.4818 17.0126 56.2577 17.5088 56.8838C18.1536 57.1077 18.8415 57.1792 19.5186 57.0927C20.1957 57.0061 20.8435 56.7639 21.4113 56.385C21.127 57.0546 21.0531 57.7948 21.1992 58.5074C21.3453 59.22 21.7046 59.8713 22.2294 60.375C22.9699 60.7009 23.7806 60.8349 24.5866 60.7646C25.3926 60.6942 26.1678 60.4218 26.8406 59.9725L29.0981 57.9294C31.1631 59.9856 34.0113 61.2588 37.1569 61.2588L37.4238 61.2544C38.4605 61.1664 39.4538 60.7977 40.297 60.1881C41.1402 59.5784 41.8015 58.7507 42.21 57.7938C42.8488 58.0387 43.575 58.205 44.345 58.205C45.3775 58.205 46.3356 57.9075 47.145 57.3956C49.7044 55.7025 49.0919 54.39 49.0919 54.39C50.002 54.7817 51.0129 54.8746 51.9791 54.6553C52.9453 54.4359 53.817 53.9157 54.4688 53.1694C55.146 52.4766 55.5731 51.5778 55.6824 50.6151C55.7917 49.6525 55.5771 48.6808 55.0725 47.8537C55.1005 47.8693 55.1323 47.8769 55.1644 47.8756C57.0063 47.8756 58.6075 46.8606 59.4431 45.3644C59.8559 44.3012 59.9957 43.1516 59.8498 42.0205C59.7038 40.8894 59.2767 39.8129 58.6075 38.8894L58.6206 38.9113C62.2081 38.2113 62.0769 36.4175 63.8269 33.7925C65.4818 31.6484 67.544 29.8523 69.895 28.5075L56.875 13.125ZM56.6563 44.0125C54.7313 45.9375 53.2438 45.1062 49.9625 42.6125C46.6813 40.1187 40.1625 35.4375 40.1625 35.4375C40.4294 36.7719 41.0463 37.9312 41.9169 38.8544C43.3125 40.425 47.4688 44.0125 49.4375 45.85C50.6625 46.9875 53.8125 49.2625 51.975 51.0125C50.1375 52.7625 48.6938 51.0125 45.675 48.5625C42.6563 46.1125 35.9188 40.075 35.9188 40.075C35.8825 40.6537 35.969 41.2334 36.1725 41.7763C36.3761 42.3192 36.6922 42.8129 37.1 43.225C37.8438 44.1 42 48.125 43.75 49.9625C45.5 51.8 47.0313 52.8937 45.5438 54.3375C44.0563 55.7812 41.0375 53.5063 39.375 51.8C36.7938 49.3063 31.675 44.6688 31.675 44.6688L31.6706 44.9006C31.6706 46.1431 32.0994 47.2806 32.8213 48.1819C34.0813 49.8356 36.5313 51.9794 38.0188 53.6419C39.5063 55.3044 40.3813 56.7044 38.0188 58.0169C35.6563 59.3294 32.1563 56.0919 30.625 54.5169V54.5081C30.6298 54.0752 30.4739 53.6559 30.1875 53.3312C29.6632 52.8481 29.0175 52.5165 28.3194 52.3716C27.6213 52.2267 26.897 52.2741 26.2238 52.5088C26.5001 52.2605 26.7215 51.9573 26.8739 51.6185C27.0263 51.2797 27.1062 50.9129 27.1087 50.5414C27.1112 50.17 27.0361 49.8021 26.8882 49.4613C26.7404 49.1206 26.523 48.8144 26.25 48.5625C25.6757 48.1274 24.9748 47.8923 24.2543 47.8931C23.5338 47.8938 22.8333 48.1305 22.26 48.5669C22.5499 48.29 22.7737 47.9513 22.9147 47.576C23.0558 47.2008 23.1105 46.7985 23.0748 46.3992C23.039 45.9999 22.9138 45.6138 22.7084 45.2695C22.5029 44.9252 22.2226 44.6317 21.8881 44.4106C21.1049 43.9185 20.1859 43.6873 19.2631 43.7502C18.3402 43.8131 17.4611 44.1668 16.7519 44.7606C17.2259 44.1861 17.4596 43.4507 17.4041 42.708C17.3487 41.9653 17.0084 41.2727 16.4544 40.775C15.7644 40.1366 14.8872 39.7375 13.9526 39.6366C13.0181 39.5357 12.0759 39.7386 11.2656 40.215L8.35625 35.3019C6.34375 32.1081 3.98125 28.7831 3.98125 28.7831L13.9563 16.6644C13.9563 16.6644 17.5 18.8519 20.4313 20.5144C21.875 21.3456 24.3688 22.4394 26.25 23.3144C23.275 25.5456 20.7813 27.6894 21.525 29.1769C22.8494 30.1307 24.4338 30.6569 26.0657 30.6851C27.6976 30.7132 29.2991 30.2419 30.6556 29.3344C32.395 28.1749 34.4409 27.561 36.5313 27.5712C38.0494 27.5712 39.4931 27.8863 40.8013 28.4594C43.225 30.0956 47.6875 34.1206 51.7563 36.6581C56.875 40.3769 57.8813 42.7831 56.6563 44.0081V44.0125Z" fill="#C69F86"/>
</g>
<defs>
<clipPath id="clip0_57_160">
<rect width="70" height="70" fill="white"/>
</clipPath>
</defs>
</svg>
