<svg width="70" height="70" viewBox="0 0 70 70" fill="none" xmlns="http://www.w3.org/2000/svg">
<path d="M32.5091 20.4837C33.6175 18.4917 34.1716 17.5 35 17.5C35.8283 17.5 36.3825 18.4917 37.4908 20.4837L37.7766 20.9971C38.0916 21.5629 38.2491 21.8429 38.4941 22.0296C38.742 22.2163 39.0483 22.2863 39.6608 22.4233L40.215 22.5517C42.3675 23.0387 43.4437 23.2808 43.7004 24.1033C43.957 24.9258 43.222 25.7862 41.755 27.5012L41.3758 27.9446C40.9587 28.4317 40.7487 28.6738 40.6554 28.9771C40.562 29.2804 40.5941 29.6042 40.6554 30.2546L40.7137 30.8467C40.9354 33.1363 41.0462 34.2825 40.3783 34.79C39.7075 35.2975 38.6983 34.8338 36.6829 33.9063L36.1637 33.6671C35.5891 33.4046 35.3033 33.2733 35 33.2733C34.6966 33.2733 34.4108 33.4046 33.8362 33.6671L33.317 33.9063C31.3016 34.8367 30.2925 35.2975 29.6216 34.79C28.9508 34.2825 29.0645 33.1363 29.2862 30.8467L29.3445 30.2546C29.4058 29.6042 29.4379 29.2804 29.3445 28.9771C29.2512 28.6738 29.0412 28.4317 28.6241 27.9446L28.245 27.5012C26.7779 25.7862 26.0429 24.9288 26.2995 24.1033C26.5562 23.2808 27.6325 23.0387 29.785 22.5517L30.3391 22.4233C30.9516 22.2863 31.2579 22.2192 31.5058 22.0296C31.7508 21.8429 31.9083 21.5629 32.2233 20.9971L32.5091 20.4837Z" stroke="#C69F86" stroke-width="4"/>
<path d="M55.4167 26.2499C55.4167 28.9311 54.8886 31.586 53.8626 34.063C52.8366 36.5401 51.3327 38.7908 49.4368 40.6867C47.5409 42.5825 45.2902 44.0864 42.8132 45.1125C40.3361 46.1385 37.6812 46.6666 35 46.6666C32.3189 46.6666 29.664 46.1385 27.1869 45.1125C24.7099 44.0864 22.4591 42.5825 20.5633 40.6867C18.6674 38.7908 17.1635 36.5401 16.1375 34.063C15.1115 31.586 14.5834 28.9311 14.5834 26.2499C14.5834 20.8351 16.7344 15.642 20.5633 11.8132C24.3921 7.98429 29.5852 5.83325 35 5.83325C40.4149 5.83325 45.6079 7.98429 49.4368 11.8132C53.2657 15.642 55.4167 20.8351 55.4167 26.2499Z" stroke="#C69F86" stroke-width="4"/>
<path d="M15.9134 35L8.72669 42.4404C7.15169 44.0708 6.36419 44.8875 6.09002 45.5787C5.46877 47.1508 6.00252 48.8979 7.35294 49.7262C7.94794 50.0879 9.01835 50.2017 11.1592 50.4292C12.3696 50.5575 12.9734 50.6188 13.4779 50.8142C14.0424 51.0324 14.5526 51.3708 14.9732 51.806C15.3937 52.2411 15.7145 52.7626 15.9134 53.3342C16.1 53.8592 16.1613 54.4833 16.2867 55.7375C16.5025 57.9542 16.6134 59.0625 16.9634 59.675C17.7625 61.075 19.4513 61.6233 20.9679 60.9817C21.6388 60.7017 22.4263 59.8879 24.0013 58.2546L35 46.865L45.9988 58.2546C47.5738 59.8879 48.3613 60.7017 49.0321 60.9817C50.5488 61.6233 52.2375 61.075 53.0367 59.675C53.3867 59.0625 53.4946 57.9542 53.7134 55.7375C53.8388 54.4833 53.9 53.8592 54.0867 53.3342C54.5067 52.1617 55.3875 51.2488 56.5221 50.8142C57.0267 50.6188 57.6304 50.5575 58.8409 50.4292C60.9817 50.2017 62.0521 50.0879 62.6471 49.7262C63.9975 48.8979 64.5313 47.1508 63.91 45.5787C63.6359 44.8875 62.8484 44.0708 61.2734 42.4404L54.0867 35" stroke="#C69F86" stroke-width="4"/>
</svg>
