<svg width="70" height="70" viewBox="0 0 70 70" fill="none" xmlns="http://www.w3.org/2000/svg">
<path d="M20.4166 52.5V49.5833C20.4166 45.7156 21.9531 42.0063 24.688 39.2714C27.4229 36.5365 31.1322 35 35 35M35 35C38.8677 35 42.577 36.5365 45.3119 39.2714C48.0468 42.0063 49.5833 45.7156 49.5833 49.5833V52.5M35 35C37.3206 35 39.5462 34.0781 41.1871 32.4372C42.8281 30.7962 43.75 28.5706 43.75 26.25C43.75 23.9294 42.8281 21.7038 41.1871 20.0628C39.5462 18.4219 37.3206 17.5 35 17.5C32.6793 17.5 30.4537 18.4219 28.8128 20.0628C27.1718 21.7038 26.25 23.9294 26.25 26.25C26.25 28.5706 27.1718 30.7962 28.8128 32.4372C30.4537 34.0781 32.6793 35 35 35ZM2.91663 52.5V49.5833C2.91663 47.2627 3.8385 45.0371 5.47944 43.3961C7.12038 41.7552 9.34598 40.8333 11.6666 40.8333M11.6666 40.8333C13.2137 40.8333 14.6975 40.2188 15.7914 39.1248C16.8854 38.0308 17.5 36.5471 17.5 35C17.5 33.4529 16.8854 31.9692 15.7914 30.8752C14.6975 29.7812 13.2137 29.1667 11.6666 29.1667C10.1195 29.1667 8.6358 29.7812 7.54184 30.8752C6.44787 31.9692 5.83329 33.4529 5.83329 35C5.83329 36.5471 6.44787 38.0308 7.54184 39.1248C8.6358 40.2188 10.1195 40.8333 11.6666 40.8333ZM67.0833 52.5V49.5833C67.0833 47.2627 66.1614 45.0371 64.5205 43.3961C62.8795 41.7552 60.6539 40.8333 58.3333 40.8333M58.3333 40.8333C59.8804 40.8333 61.3641 40.2188 62.4581 39.1248C63.552 38.0308 64.1666 36.5471 64.1666 35C64.1666 33.4529 63.552 31.9692 62.4581 30.8752C61.3641 29.7812 59.8804 29.1667 58.3333 29.1667C56.7862 29.1667 55.3025 29.7812 54.2085 30.8752C53.1145 31.9692 52.5 33.4529 52.5 35C52.5 36.5471 53.1145 38.0308 54.2085 39.1248C55.3025 40.2188 56.7862 40.8333 58.3333 40.8333Z" stroke="#C69F86" stroke-width="4" stroke-linecap="round" stroke-linejoin="round"/>
</svg>
