<svg width="70" height="70" viewBox="0 0 70 70" fill="none" xmlns="http://www.w3.org/2000/svg">
<path d="M54.6875 30.625C54.0723 30.625 53.5026 30.7389 52.9785 30.9668C52.4544 31.1947 51.9987 31.5023 51.6113 31.8896C51.224 32.277 50.9049 32.7441 50.6543 33.291C50.4036 33.8379 50.2897 34.4076 50.3125 35C50.3125 35.6152 50.4264 36.1849 50.6543 36.709C50.8822 37.2331 51.1898 37.6888 51.5771 38.0762C51.9645 38.4635 52.4316 38.7826 52.9785 39.0332C53.5254 39.2839 54.0951 39.3978 54.6875 39.375H61.25V56.875H48.125V59.0625C48.125 60.2702 47.8971 61.3981 47.4414 62.4463C46.9857 63.4945 46.3591 64.4287 45.5615 65.249C44.764 66.0693 43.8411 66.696 42.793 67.1289C41.7448 67.5619 40.6055 67.7897 39.375 67.8125C38.1673 67.8125 37.0394 67.5846 35.9912 67.1289C34.943 66.6732 34.0088 66.0466 33.1885 65.249C32.3682 64.4515 31.7415 63.5286 31.3086 62.4805C30.8757 61.4323 30.6478 60.293 30.625 59.0625V56.875H17.5V43.75H15.3125C14.1048 43.75 12.9769 43.5221 11.9287 43.0664C10.8805 42.6107 9.94629 41.9841 9.12598 41.1865C8.30566 40.389 7.67904 39.4661 7.24609 38.418C6.81315 37.3698 6.58529 36.2305 6.5625 35C6.5625 33.7923 6.79036 32.6644 7.24609 31.6162C7.70182 30.568 8.32845 29.6338 9.12598 28.8135C9.9235 27.9932 10.8464 27.3665 11.8945 26.9336C12.9427 26.5007 14.082 26.2728 15.3125 26.25H17.5V13.125H30.625V10.9375C30.625 9.72982 30.8529 8.60189 31.3086 7.55371C31.7643 6.50553 32.391 5.57129 33.1885 4.75098C33.986 3.93066 34.9089 3.30404 35.957 2.87109C37.0052 2.43815 38.1445 2.21029 39.375 2.1875C40.5827 2.1875 41.7106 2.41536 42.7588 2.87109C43.807 3.32682 44.7412 3.95345 45.5615 4.75098C46.3818 5.5485 47.0085 6.47135 47.4414 7.51953C47.8743 8.56771 48.1022 9.70703 48.125 10.9375V13.125H61.25V30.625H54.6875ZM54.6875 43.75C53.4798 43.75 52.3519 43.5221 51.3037 43.0664C50.2555 42.6107 49.3213 41.9841 48.501 41.1865C47.6807 40.389 47.054 39.4661 46.6211 38.418C46.1882 37.3698 45.9603 36.2305 45.9375 35C45.9375 33.7923 46.1654 32.6644 46.6211 31.6162C47.0768 30.568 47.7034 29.6338 48.501 28.8135C49.2985 27.9932 50.2214 27.3665 51.2695 26.9336C52.3177 26.5007 53.457 26.2728 54.6875 26.25H56.875V17.5H43.75V10.9375C43.75 10.3223 43.6361 9.7526 43.4082 9.22852C43.1803 8.70443 42.8727 8.2487 42.4854 7.86133C42.098 7.47396 41.6309 7.15495 41.084 6.9043C40.5371 6.65365 39.9674 6.53971 39.375 6.5625C38.7598 6.5625 38.1901 6.67643 37.666 6.9043C37.1419 7.13216 36.6862 7.43978 36.2988 7.82715C35.9115 8.21452 35.5924 8.68164 35.3418 9.22852C35.0911 9.77539 34.9772 10.3451 35 10.9375V17.5H21.875V30.625H15.3125C14.6973 30.625 14.1276 30.7389 13.6035 30.9668C13.0794 31.1947 12.6237 31.5023 12.2363 31.8896C11.849 32.277 11.5299 32.7441 11.2793 33.291C11.0286 33.8379 10.9147 34.4076 10.9375 35C10.9375 35.6152 11.0514 36.1849 11.2793 36.709C11.5072 37.2331 11.8148 37.6888 12.2021 38.0762C12.5895 38.4635 13.0566 38.7826 13.6035 39.0332C14.1504 39.2839 14.7201 39.3978 15.3125 39.375H21.875V52.5H35V59.0625C35 59.6777 35.1139 60.2474 35.3418 60.7715C35.5697 61.2956 35.8773 61.7513 36.2646 62.1387C36.652 62.526 37.1191 62.8451 37.666 63.0957C38.2129 63.3464 38.7826 63.4603 39.375 63.4375C39.9902 63.4375 40.5599 63.3236 41.084 63.0957C41.6081 62.8678 42.0638 62.5602 42.4512 62.1729C42.8385 61.7855 43.1576 61.3184 43.4082 60.7715C43.6589 60.2246 43.7728 59.6549 43.75 59.0625V52.5H56.875V43.75H54.6875Z" fill="#C69F86"/>
</svg>
