<svg width="55" height="55" viewBox="0 0 55 55" fill="none" xmlns="http://www.w3.org/2000/svg">
<g clip-path="url(#clip0_106_7)">
<path d="M48.0283 9.25977C43.001 3.58789 35.6855 0 27.5 0C12.3105 0 0 12.3105 0 27.5H6.875C6.875 16.1025 16.1025 6.875 27.5 6.875C33.7842 6.875 39.3594 9.72168 43.1299 14.1582L36.6631 20.625H55V2.28809L48.0283 9.25977ZM27.5 48.125C21.2158 48.125 15.6406 45.2783 11.8701 40.8418L18.3369 34.375H0V52.7119L6.97168 45.7402C11.999 51.4121 19.3252 55 27.5 55C42.6895 55 55 42.6895 55 27.5H48.125C48.125 38.8975 38.8975 48.125 27.5 48.125Z" fill="#C69F86"/>
</g>
<defs>
<clipPath id="clip0_106_7">
<rect width="55" height="55" fill="white"/>
</clipPath>
</defs>
</svg>
