<svg width="70" height="70" viewBox="0 0 70 70" fill="none" xmlns="http://www.w3.org/2000/svg">
<path d="M26.25 52.5H43.75" stroke="#C69F86" stroke-width="4" stroke-linecap="round" stroke-linejoin="round"/>
<path d="M29.1666 61.25H40.8333" stroke="#C69F86" stroke-width="4" stroke-linecap="round" stroke-linejoin="round"/>
<path d="M35 5.83334C31.3179 6.0207 27.789 7.36619 24.9168 9.67785C22.0447 11.9895 19.976 15.1492 19.0059 18.7062C18.0358 22.2631 18.2139 26.0356 19.5148 29.4854C20.8157 32.9351 23.1728 35.8859 26.25 37.9167V43.75C26.25 44.5236 26.5573 45.2654 27.1042 45.8124C27.6512 46.3594 28.3931 46.6667 29.1666 46.6667H40.8333C41.6069 46.6667 42.3487 46.3594 42.8957 45.8124C43.4427 45.2654 43.75 44.5236 43.75 43.75V37.9167C46.8271 35.8859 49.1843 32.9351 50.4851 29.4854C51.786 26.0356 51.9641 22.2631 50.994 18.7062C50.0239 15.1492 47.9553 11.9895 45.0831 9.67785C42.2109 7.36619 38.6821 6.0207 35 5.83334Z" stroke="#C69F86" stroke-width="4" stroke-linecap="round" stroke-linejoin="round"/>
</svg>
