<svg width="475" height="24" viewBox="0 0 475 24" fill="none" xmlns="http://www.w3.org/2000/svg">
<path d="M21.3863 11.9545C21.3863 14.462 20.9166 16.6098 19.9772 18.3976C19.0454 20.1779 17.7727 21.5416 16.159 22.4885C14.553 23.4355 12.731 23.909 10.6931 23.909C8.65526 23.909 6.8295 23.4355 5.21587 22.4885C3.6098 21.534 2.33708 20.1666 1.39768 18.3863C0.465865 16.5984 -4.43459e-05 14.4545 -4.43459e-05 11.9545C-4.43459e-05 9.44688 0.465865 7.30294 1.39768 5.52264C2.33708 3.73476 3.6098 2.36734 5.21587 1.42036C6.8295 0.473395 8.65526 -8.96454e-05 10.6931 -8.96454e-05C12.731 -8.96454e-05 14.553 0.473395 16.159 1.42036C17.7727 2.36734 19.0454 3.73476 19.9772 5.52264C20.9166 7.30294 21.3863 9.44688 21.3863 11.9545ZM17.1477 11.9545C17.1477 10.1893 16.8712 8.70067 16.3181 7.48855C15.7727 6.26885 15.0151 5.3484 14.0454 4.72718C13.0757 4.0984 11.9583 3.784 10.6931 3.784C9.42799 3.784 8.31056 4.0984 7.34087 4.72718C6.37117 5.3484 5.6098 6.26885 5.05677 7.48855C4.51132 8.70067 4.23859 10.1893 4.23859 11.9545C4.23859 13.7196 4.51132 15.212 5.05677 16.4317C5.6098 17.6439 6.37117 18.5643 7.34087 19.1931C8.31056 19.8143 9.42799 20.1249 10.6931 20.1249C11.9583 20.1249 13.0757 19.8143 14.0454 19.1931C15.0151 18.5643 15.7727 17.6439 16.3181 16.4317C16.8712 15.212 17.1477 13.7196 17.1477 11.9545ZM28.0312 0.318092V8.88627H24.8948V0.318092H28.0312ZM31.7528 23.5908V20.9658L43.6846 3.85218H31.6846V0.318092H48.9119V2.94309L36.9914 20.0567H48.9801V23.5908H31.7528ZM56.0483 23.5908H51.5483L59.7414 0.318092H64.946L73.1505 23.5908H68.6505L62.4346 5.09082H62.2528L56.0483 23.5908ZM56.196 14.4658H68.4687V17.8522H56.196V14.4658ZM90.713 7.74991C90.5236 7.13627 90.2623 6.58703 89.9289 6.10218C89.6032 5.60976 89.2092 5.1893 88.7471 4.84082C88.2926 4.49234 87.7698 4.23097 87.1789 4.05673C86.588 3.87491 85.9441 3.784 85.2471 3.784C83.9971 3.784 82.8835 4.0984 81.9062 4.72718C80.9289 5.35597 80.16 6.28021 79.5994 7.49991C79.0464 8.71203 78.7698 10.1893 78.7698 11.9317C78.7698 13.6893 79.0464 15.1779 79.5994 16.3976C80.1524 17.6173 80.9214 18.5454 81.9062 19.1817C82.8911 19.8105 84.035 20.1249 85.338 20.1249C86.5198 20.1249 87.5426 19.8976 88.4062 19.4431C89.2774 18.9885 89.9479 18.3446 90.4176 17.5113C90.8873 16.6704 91.1221 15.6855 91.1221 14.5567L92.0767 14.7045H85.7585V11.409H95.2017V14.2045C95.2017 16.1969 94.7774 17.9204 93.9289 19.3749C93.0804 20.8295 91.9138 21.9507 90.4289 22.7385C88.9441 23.5189 87.2395 23.909 85.3153 23.909C83.1714 23.909 81.2888 23.4279 79.6676 22.4658C78.0539 21.4961 76.7926 20.1211 75.8835 18.3408C74.982 16.5529 74.5312 14.4317 74.5312 11.9772C74.5312 10.0984 74.7964 8.42037 75.3267 6.94309C75.8645 5.46582 76.6145 4.21203 77.5767 3.18173C78.5388 2.14385 79.6676 1.35597 80.963 0.818092C82.2585 0.272638 83.6676 -8.96454e-05 85.1903 -8.96454e-05C86.4782 -8.96454e-05 87.6789 0.189304 88.7926 0.568092C89.9062 0.939304 90.8948 1.46961 91.7585 2.159C92.6297 2.8484 93.3456 3.66658 93.9062 4.61355C94.4668 5.56052 94.8342 6.60597 95.0085 7.74991H90.713ZM99.2784 23.5908V0.318092H108.006C109.794 0.318092 111.294 0.628698 112.506 1.24991C113.725 1.87112 114.646 2.74233 115.267 3.86355C115.896 4.97718 116.21 6.27643 116.21 7.76127C116.21 9.2537 115.892 10.5492 115.256 11.6476C114.627 12.7385 113.699 13.5832 112.472 14.1817C111.244 14.7726 109.737 15.0681 107.949 15.0681H101.733V11.5681H107.381C108.426 11.5681 109.282 11.4242 109.949 11.1363C110.615 10.8408 111.108 10.4128 111.426 9.85218C111.752 9.284 111.915 8.58703 111.915 7.76127C111.915 6.93552 111.752 6.23097 111.426 5.64764C111.1 5.05673 110.604 4.60976 109.937 4.30673C109.271 3.99612 108.411 3.84082 107.358 3.84082H103.494V23.5908H99.2784ZM111.301 13.0454L117.062 23.5908H112.358L106.699 13.0454H111.301ZM140.886 11.9545C140.886 14.462 140.417 16.6098 139.477 18.3976C138.545 20.1779 137.273 21.5416 135.659 22.4885C134.053 23.4355 132.231 23.909 130.193 23.909C128.155 23.909 126.33 23.4355 124.716 22.4885C123.11 21.534 121.837 20.1666 120.898 18.3863C119.966 16.5984 119.5 14.4545 119.5 11.9545C119.5 9.44688 119.966 7.30294 120.898 5.52264C121.837 3.73476 123.11 2.36734 124.716 1.42036C126.33 0.473395 128.155 -8.96454e-05 130.193 -8.96454e-05C132.231 -8.96454e-05 134.053 0.473395 135.659 1.42036C137.273 2.36734 138.545 3.73476 139.477 5.52264C140.417 7.30294 140.886 9.44688 140.886 11.9545ZM136.648 11.9545C136.648 10.1893 136.371 8.70067 135.818 7.48855C135.273 6.26885 134.515 5.3484 133.545 4.72718C132.576 4.0984 131.458 3.784 130.193 3.784C128.928 3.784 127.811 4.0984 126.841 4.72718C125.871 5.3484 125.11 6.26885 124.557 7.48855C124.011 8.70067 123.739 10.1893 123.739 11.9545C123.739 13.7196 124.011 15.212 124.557 16.4317C125.11 17.6439 125.871 18.5643 126.841 19.1931C127.811 19.8143 128.928 20.1249 130.193 20.1249C131.458 20.1249 132.576 19.8143 133.545 19.1931C134.515 18.5643 135.273 17.6439 135.818 16.4317C136.371 15.212 136.648 13.7196 136.648 11.9545ZM157.52 6.71582C157.414 5.7234 156.967 4.95067 156.179 4.39764C155.399 3.84461 154.383 3.56809 153.133 3.56809C152.255 3.56809 151.501 3.70067 150.872 3.96582C150.243 4.23097 149.762 4.59082 149.429 5.04536C149.096 5.49991 148.925 6.01885 148.918 6.60218C148.918 7.08703 149.027 7.50749 149.247 7.86355C149.474 8.21961 149.781 8.52264 150.168 8.77264C150.554 9.01506 150.982 9.21961 151.452 9.38627C151.921 9.55294 152.395 9.69309 152.872 9.80673L155.054 10.3522C155.933 10.5567 156.777 10.8332 157.588 11.1817C158.406 11.5302 159.137 11.9696 159.781 12.4999C160.433 13.0302 160.948 13.6704 161.327 14.4204C161.705 15.1704 161.895 16.0492 161.895 17.0567C161.895 18.4204 161.546 19.6211 160.849 20.659C160.152 21.6893 159.145 22.4961 157.827 23.0795C156.516 23.6552 154.929 23.9431 153.065 23.9431C151.255 23.9431 149.683 23.6628 148.349 23.1022C147.024 22.5416 145.986 21.7234 145.236 20.6476C144.493 19.5719 144.092 18.2613 144.031 16.7158H148.179C148.24 17.5264 148.49 18.2007 148.929 18.7385C149.368 19.2764 149.94 19.6779 150.645 19.9431C151.357 20.2082 152.152 20.3408 153.031 20.3408C153.948 20.3408 154.751 20.2045 155.44 19.9317C156.137 19.6514 156.683 19.2651 157.077 18.7726C157.471 18.2726 157.671 17.6893 157.679 17.0226C157.671 16.4166 157.493 15.9166 157.145 15.5226C156.796 15.1211 156.308 14.7878 155.679 14.5226C155.058 14.2499 154.33 14.0075 153.497 13.7954L150.849 13.1135C148.933 12.6211 147.418 11.8749 146.304 10.8749C145.198 9.86734 144.645 8.53021 144.645 6.86355C144.645 5.49233 145.016 4.29158 145.758 3.26127C146.508 2.23097 147.527 1.43173 148.815 0.863546C150.103 0.287789 151.562 -8.96454e-05 153.19 -8.96454e-05C154.842 -8.96454e-05 156.289 0.287789 157.531 0.863546C158.781 1.43173 159.762 2.2234 160.474 3.23855C161.187 4.24612 161.554 5.40521 161.577 6.71582H157.52ZM168.267 23.5908H163.767L171.96 0.318092H177.165L185.369 23.5908H180.869L174.653 5.09082H174.472L168.267 23.5908ZM168.415 14.4658H180.687V17.8522H168.415V14.4658ZM207.56 0.318092V23.5908H203.81L192.844 7.73855H192.651V23.5908H188.435V0.318092H192.207L203.162 16.1817H203.366V0.318092H207.56ZM232.949 11.9545C232.949 14.462 232.479 16.6098 231.54 18.3976C230.608 20.1779 229.335 21.5416 227.722 22.4885C226.115 23.4355 224.294 23.909 222.256 23.909C220.218 23.909 218.392 23.4355 216.778 22.4885C215.172 21.534 213.9 20.1666 212.96 18.3863C212.028 16.5984 211.562 14.4545 211.562 11.9545C211.562 9.44688 212.028 7.30294 212.96 5.52264C213.9 3.73476 215.172 2.36734 216.778 1.42036C218.392 0.473395 220.218 -8.96454e-05 222.256 -8.96454e-05C224.294 -8.96454e-05 226.115 0.473395 227.722 1.42036C229.335 2.36734 230.608 3.73476 231.54 5.52264C232.479 7.30294 232.949 9.44688 232.949 11.9545ZM228.71 11.9545C228.71 10.1893 228.434 8.70067 227.881 7.48855C227.335 6.26885 226.578 5.3484 225.608 4.72718C224.638 4.0984 223.521 3.784 222.256 3.784C220.99 3.784 219.873 4.0984 218.903 4.72718C217.934 5.3484 217.172 6.26885 216.619 7.48855C216.074 8.70067 215.801 10.1893 215.801 11.9545C215.801 13.7196 216.074 15.212 216.619 16.4317C217.172 17.6439 217.934 18.5643 218.903 19.1931C219.873 19.8143 220.99 20.1249 222.256 20.1249C223.521 20.1249 224.638 19.8143 225.608 19.1931C226.578 18.5643 227.335 17.6439 227.881 16.4317C228.434 15.212 228.71 13.7196 228.71 11.9545ZM238.673 23.5908H234.173L242.366 0.318092H247.571L255.776 23.5908H251.276L245.06 5.09082H244.878L238.673 23.5908ZM238.821 14.4658H251.094V17.8522H238.821V14.4658ZM255.006 3.85218V0.318092H273.574V3.85218H266.381V23.5908H262.199V3.85218H255.006ZM277.153 23.5908V0.318092H281.369V20.0567H291.619V23.5908H277.153ZM315.168 11.9545C315.168 14.462 314.698 16.6098 313.758 18.3976C312.827 20.1779 311.554 21.5416 309.94 22.4885C308.334 23.4355 306.512 23.909 304.474 23.909C302.437 23.909 300.611 23.4355 298.997 22.4885C297.391 21.534 296.118 20.1666 295.179 18.3863C294.247 16.5984 293.781 14.4545 293.781 11.9545C293.781 9.44688 294.247 7.30294 295.179 5.52264C296.118 3.73476 297.391 2.36734 298.997 1.42036C300.611 0.473395 302.437 -8.96454e-05 304.474 -8.96454e-05C306.512 -8.96454e-05 308.334 0.473395 309.94 1.42036C311.554 2.36734 312.827 3.73476 313.758 5.52264C314.698 7.30294 315.168 9.44688 315.168 11.9545ZM310.929 11.9545C310.929 10.1893 310.652 8.70067 310.099 7.48855C309.554 6.26885 308.796 5.3484 307.827 4.72718C306.857 4.0984 305.74 3.784 304.474 3.784C303.209 3.784 302.092 4.0984 301.122 4.72718C300.152 5.3484 299.391 6.26885 298.838 7.48855C298.293 8.70067 298.02 10.1893 298.02 11.9545C298.02 13.7196 298.293 15.212 298.838 16.4317C299.391 17.6439 300.152 18.5643 301.122 19.1931C302.092 19.8143 303.209 20.1249 304.474 20.1249C305.74 20.1249 306.857 19.8143 307.827 19.1931C308.796 18.5643 309.554 17.6439 310.099 16.4317C310.652 15.212 310.929 13.7196 310.929 11.9545ZM316.25 0.318092H321.011L326.705 10.6135H326.932L332.625 0.318092H337.386L328.92 14.909V23.5908H324.716V14.909L316.25 0.318092ZM344.588 0.318092V23.5908H340.372V0.318092H344.588ZM349.153 23.5908V0.318092H353.369V10.1704H364.153V0.318092H368.381V23.5908H364.153V13.7045H353.369V23.5908H349.153ZM375.955 23.5908H371.455L379.648 0.318092H384.852L393.057 23.5908H388.557L382.341 5.09082H382.159L375.955 23.5908ZM376.102 14.4658H388.375V17.8522H376.102V14.4658ZM424.855 11.9545C424.855 14.462 424.385 16.6098 423.446 18.3976C422.514 20.1779 421.241 21.5416 419.628 22.4885C418.022 23.4355 416.2 23.909 414.162 23.909C412.124 23.909 410.298 23.4355 408.685 22.4885C407.079 21.534 405.806 20.1666 404.866 18.3863C403.935 16.5984 403.469 14.4545 403.469 11.9545C403.469 9.44688 403.935 7.30294 404.866 5.52264C405.806 3.73476 407.079 2.36734 408.685 1.42036C410.298 0.473395 412.124 -8.96454e-05 414.162 -8.96454e-05C416.2 -8.96454e-05 418.022 0.473395 419.628 1.42036C421.241 2.36734 422.514 3.73476 423.446 5.52264C424.385 7.30294 424.855 9.44688 424.855 11.9545ZM420.616 11.9545C420.616 10.1893 420.34 8.70067 419.787 7.48855C419.241 6.26885 418.484 5.3484 417.514 4.72718C416.544 4.0984 415.427 3.784 414.162 3.784C412.897 3.784 411.779 4.0984 410.81 4.72718C409.84 5.3484 409.079 6.26885 408.526 7.48855C407.98 8.70067 407.707 10.1893 407.707 11.9545C407.707 13.7196 407.98 15.212 408.526 16.4317C409.079 17.6439 409.84 18.5643 410.81 19.1931C411.779 19.8143 412.897 20.1249 414.162 20.1249C415.427 20.1249 416.544 19.8143 417.514 19.1931C418.484 18.5643 419.241 17.6439 419.787 16.4317C420.34 15.212 420.616 13.7196 420.616 11.9545ZM449.636 11.9545C449.636 14.462 449.167 16.6098 448.227 18.3976C447.295 20.1779 446.023 21.5416 444.409 22.4885C442.803 23.4355 440.981 23.909 438.943 23.909C436.905 23.909 435.08 23.4355 433.466 22.4885C431.86 21.534 430.587 20.1666 429.648 18.3863C428.716 16.5984 428.25 14.4545 428.25 11.9545C428.25 9.44688 428.716 7.30294 429.648 5.52264C430.587 3.73476 431.86 2.36734 433.466 1.42036C435.08 0.473395 436.905 -8.96454e-05 438.943 -8.96454e-05C440.981 -8.96454e-05 442.803 0.473395 444.409 1.42036C446.023 2.36734 447.295 3.73476 448.227 5.52264C449.167 7.30294 449.636 9.44688 449.636 11.9545ZM445.398 11.9545C445.398 10.1893 445.121 8.70067 444.568 7.48855C444.023 6.26885 443.265 5.3484 442.295 4.72718C441.326 4.0984 440.208 3.784 438.943 3.784C437.678 3.784 436.561 4.0984 435.591 4.72718C434.621 5.3484 433.86 6.26885 433.307 7.48855C432.761 8.70067 432.489 10.1893 432.489 11.9545C432.489 13.7196 432.761 15.212 433.307 16.4317C433.86 17.6439 434.621 18.5643 435.591 19.1931C436.561 19.8143 437.678 20.1249 438.943 20.1249C440.208 20.1249 441.326 19.8143 442.295 19.1931C443.265 18.5643 444.023 17.6439 444.568 16.4317C445.121 15.212 445.398 13.7196 445.398 11.9545ZM474.418 11.9545C474.418 14.462 473.948 16.6098 473.008 18.3976C472.077 20.1779 470.804 21.5416 469.19 22.4885C467.584 23.4355 465.762 23.909 463.724 23.909C461.687 23.909 459.861 23.4355 458.247 22.4885C456.641 21.534 455.368 20.1666 454.429 18.3863C453.497 16.5984 453.031 14.4545 453.031 11.9545C453.031 9.44688 453.497 7.30294 454.429 5.52264C455.368 3.73476 456.641 2.36734 458.247 1.42036C459.861 0.473395 461.687 -8.96454e-05 463.724 -8.96454e-05C465.762 -8.96454e-05 467.584 0.473395 469.19 1.42036C470.804 2.36734 472.077 3.73476 473.008 5.52264C473.948 7.30294 474.418 9.44688 474.418 11.9545ZM470.179 11.9545C470.179 10.1893 469.902 8.70067 469.349 7.48855C468.804 6.26885 468.046 5.3484 467.077 4.72718C466.107 4.0984 464.99 3.784 463.724 3.784C462.459 3.784 461.342 4.0984 460.372 4.72718C459.402 5.3484 458.641 6.26885 458.088 7.48855C457.543 8.70067 457.27 10.1893 457.27 11.9545C457.27 13.7196 457.543 15.212 458.088 16.4317C458.641 17.6439 459.402 18.5643 460.372 19.1931C461.342 19.8143 462.459 20.1249 463.724 20.1249C464.99 20.1249 466.107 19.8143 467.077 19.1931C468.046 18.5643 468.804 17.6439 469.349 16.4317C469.902 15.212 470.179 13.7196 470.179 11.9545Z" fill="black"/>
</svg>
