<svg width="70" height="70" viewBox="0 0 70 70" fill="none" xmlns="http://www.w3.org/2000/svg">
<path d="M23.3333 29.1667V20.4167C23.3333 13.9708 28.5542 8.75 35 8.75C41.4458 8.75 46.6667 13.9708 46.6667 20.4167V29.1667M35 43.75C35.7736 43.75 36.5154 43.4427 37.0624 42.8957C37.6094 42.3487 37.9167 41.6069 37.9167 40.8333C37.9167 40.0598 37.6094 39.3179 37.0624 38.7709C36.5154 38.224 35.7736 37.9167 35 37.9167C34.2265 37.9167 33.4846 38.224 32.9376 38.7709C32.3906 39.3179 32.0833 40.0598 32.0833 40.8333C32.0833 41.6069 32.3906 42.3487 32.9376 42.8957C33.4846 43.4427 34.2265 43.75 35 43.75ZM35 43.75V52.5M19.25 29.1667H50.75C53.3167 29.1667 55.4167 31.2667 55.4167 33.8333V54.25C55.4167 58.1 52.2667 61.25 48.4167 61.25H21.5833C17.7333 61.25 14.5833 58.1 14.5833 54.25V33.8333C14.5833 31.2667 16.6833 29.1667 19.25 29.1667Z" stroke="#C69F86" stroke-width="4" stroke-miterlimit="10" stroke-linecap="round" stroke-linejoin="round"/>
</svg>
