<svg width="70" height="70" viewBox="0 0 70 70" fill="none" xmlns="http://www.w3.org/2000/svg">
<path d="M57.2104 37.9167C57.3358 36.9493 57.404 35.9754 57.4146 35C57.404 34.0246 57.3358 33.0507 57.2104 32.0834L63.525 27.1396C63.8102 26.9218 64.005 26.6065 64.0723 26.2541C64.1395 25.9016 64.0745 25.5367 63.8896 25.2292L57.9104 14.8605C57.7372 14.5494 57.4563 14.3125 57.1205 14.1943C56.7847 14.0761 56.4173 14.0848 56.0875 14.2188L48.6354 17.223C47.0846 16.0398 45.3889 15.0596 43.5896 14.3063L42.4667 6.38754C42.4171 6.03713 42.2419 5.7167 41.9736 5.48595C41.7053 5.2552 41.3622 5.12989 41.0083 5.13337H29.0208C28.667 5.12989 28.3239 5.2552 28.0556 5.48595C27.7873 5.7167 27.612 6.03713 27.5625 6.38754L26.4396 14.3063C24.6381 15.0552 22.9419 16.0357 21.3938 17.223L13.9125 14.2188C13.5827 14.0848 13.2153 14.0761 12.8795 14.1943C12.5437 14.3125 12.2628 14.5494 12.0896 14.8605L6.11042 25.2292C5.92551 25.5367 5.86047 25.9016 5.92774 26.2541C5.995 26.6065 6.18985 26.9218 6.475 27.1396L12.775 32.0834C12.6496 33.0507 12.5815 34.0246 12.5708 35C12.5815 35.9754 12.6496 36.9493 12.775 37.9167L6.475 42.8605C6.18985 43.0783 5.995 43.3936 5.92774 43.746C5.86047 44.0985 5.92551 44.4634 6.11042 44.7709L12.0896 55.1396C12.2628 55.4506 12.5437 55.6876 12.8795 55.8058C13.2153 55.924 13.5827 55.9152 13.9125 55.7813L21.3646 52.7771C22.9154 53.9603 24.6111 54.9405 26.4104 55.6938L27.5333 63.6125C27.5829 63.9629 27.7581 64.2834 28.0264 64.5141C28.2947 64.7449 28.6378 64.8702 28.9917 64.8667H40.95C41.3039 64.8702 41.6469 64.7449 41.9152 64.5141C42.1836 64.2834 42.3588 63.9629 42.4083 63.6125L43.5313 55.6938C45.3327 54.9449 47.029 53.9644 48.5771 52.7771L56.0292 55.7813C56.359 55.9152 56.7264 55.924 57.0622 55.8058C57.398 55.6876 57.6789 55.4506 57.8521 55.1396L63.8313 44.7709C64.0162 44.4634 64.0812 44.0985 64.0139 43.746C63.9467 43.3936 63.7518 43.0783 63.4667 42.8605L57.2104 37.9167ZM35 45.4709C32.9284 45.4738 30.9026 44.8621 29.1788 43.7133C27.4549 42.5645 26.1106 40.9302 25.3158 39.0172C24.5211 37.1041 24.3116 34.9983 24.714 32.9662C25.1164 30.9341 26.1125 29.067 27.5763 27.6012C29.0401 26.1354 30.9057 25.1367 32.9373 24.7315C34.9688 24.3263 37.0749 24.5328 38.9891 25.3249C40.9032 26.1169 42.5394 27.459 43.6906 29.1812C44.8418 30.9035 45.4562 32.9285 45.4563 35C45.4582 36.3744 45.1891 37.7357 44.6645 39.006C44.1399 40.2762 43.37 41.4307 42.3988 42.4032C41.4277 43.3757 40.2744 44.1472 39.0048 44.6735C37.7352 45.1999 36.3744 45.4709 35 45.4709Z" stroke="#C69F86" stroke-width="4" stroke-linecap="round" stroke-linejoin="round"/>
</svg>
