<svg width="82" height="70" viewBox="0 0 82 70" fill="none" xmlns="http://www.w3.org/2000/svg">
<path d="M60.4705 11.1209C60.4705 17.3563 47.6122 28.5419 40.5608 33.9341C23.6376 22.9837 19.6833 14.1626 19.8216 11.1209C19.8216 -0.493216 33.9243 0.336253 40.146 9.0468C50.5157 -4.22647 60.4705 4.06917 60.4705 11.1209Z" stroke="#C69F86" stroke-width="4"/>
<path d="M1.14435 51.8935C7.0896 47.7456 20.7222 39.6988 27.6906 40.6943C36.4011 41.9386 36.8159 44.4273 48.8446 44.4273C52.1233 44.4273 55.6353 48.1971 54.6516 50.8952M32.668 53.9674C33.4976 53.9674 38.8898 53.9674 48.8446 53.5526C52.4256 53.4034 54.142 52.2931 54.6516 50.8952M9.02527 68.0701C11.514 65.3048 18.4824 60.6039 26.4462 63.9222C36.4011 68.0701 52.1629 68.4848 58.7995 62.6779C62.1178 59.7744 71.243 52.3082 78.7092 45.2569C79.9535 44.4276 78.958 37.7078 69.9987 40.6943C61.0393 43.6807 56.0343 48.7392 54.6516 50.8952" stroke="#C69F86" stroke-width="4"/>
</svg>
