<svg width="53" height="74" viewBox="0 0 53 74" fill="none" xmlns="http://www.w3.org/2000/svg">
<path d="M35.8423 57.3354C35.5682 54.1828 38.4299 48.7741 44.0664 43.3544C54.7576 33.0744 52.7016 10.3707 37.8983 4.70124C18.5718 -2.70053 8.70286 6.75726 5.00203 13.3365C1.3012 19.9158 -0.343598 34.7603 8.2917 42.532C11.9925 46.6441 15.6933 49.9338 16.5157 57.3354M14.8709 30.6071L25.5622 43.3544M25.5622 43.3544V57.3354M25.5622 43.3544L36.6647 27.3175" stroke="#C69F86" stroke-width="4"/>
<path d="M16.7528 57.3354H36.0793C38.3821 64.5726 33.475 66.3819 30.7336 66.3819H22.0984C15.1902 66.3819 15.6562 60.3509 16.7528 57.3354Z" stroke="#C69F86" stroke-width="4"/>
<path d="M21.0744 66.3818C20.252 72.1387 30.1209 75.4283 31.7657 66.3818" stroke="#C69F86" stroke-width="4"/>
</svg>
